<svg width="40" height="40" viewBox="0 0 40 40" fill="none" xmlns="http://www.w3.org/2000/svg">
<rect x="0.5" y="0.5" width="39" height="39" rx="19.5" fill="black"/>
<rect x="0.5" y="0.5" width="39" height="39" rx="19.5" stroke="white"/>
<g clip-path="url(#clip0_336_63)">
<path d="M29.1666 25.8333C29.1666 26.2754 28.991 26.6993 28.6784 27.0118C28.3659 27.3244 27.9419 27.5 27.4999 27.5H12.4999C12.0579 27.5 11.634 27.3244 11.3214 27.0118C11.0088 26.6993 10.8333 26.2754 10.8333 25.8333V16.6667C10.8333 16.2246 11.0088 15.8007 11.3214 15.4882C11.634 15.1756 12.0579 15 12.4999 15H15.8333L17.4999 12.5H22.4999L24.1666 15H27.4999C27.9419 15 28.3659 15.1756 28.6784 15.4882C28.991 15.8007 29.1666 16.2246 29.1666 16.6667V25.8333Z" stroke="white" stroke-linecap="round" stroke-linejoin="round"/>
<path d="M20.0001 24.1667C21.841 24.1667 23.3334 22.6743 23.3334 20.8333C23.3334 18.9924 21.841 17.5 20.0001 17.5C18.1591 17.5 16.6667 18.9924 16.6667 20.8333C16.6667 22.6743 18.1591 24.1667 20.0001 24.1667Z" stroke="white" stroke-linecap="round" stroke-linejoin="round"/>
</g>
<defs>
<clipPath id="clip0_336_63">
<rect width="20" height="20" fill="white" transform="translate(10 10)"/>
</clipPath>
</defs>
</svg>
