<svg width="97" height="18" viewBox="0 0 97 18" fill="none" xmlns="http://www.w3.org/2000/svg">
<path d="M8.47284 17.0405C6.7867 17.0405 5.17433 16.8501 3.63573 16.4693C2.57095 16.1948 1.66263 15.8671 0.910763 15.4862C0.381475 15.2181 0.248687 14.5515 0.565002 14.0495C0.897006 13.5226 1.59664 13.375 2.15725 13.6462C2.80674 13.9604 3.55249 14.235 4.39449 14.4702C5.70125 14.8351 7.0607 15.0176 8.47284 15.0176C9.75851 15.0176 10.8018 14.9065 11.6027 14.6844C12.4036 14.4622 12.9938 14.1608 13.3732 13.78C13.7526 13.3833 13.9422 12.9391 13.9422 12.4472C13.9422 11.876 13.6893 11.4159 13.1835 11.0668C12.6987 10.7178 12.0559 10.4401 11.255 10.2338C10.4751 10.0117 9.61098 9.82132 8.66253 9.66265C7.71407 9.50399 6.75508 9.32152 5.78556 9.11526C4.8371 8.89313 3.96242 8.61547 3.16151 8.28227C2.38167 7.94908 1.74937 7.50482 1.2646 6.94949C0.779838 6.3783 0.537456 5.64845 0.537456 4.75993C0.537456 3.90314 0.83253 3.11775 1.42268 2.40376C2.0339 1.67391 2.96128 1.09478 4.2048 0.66639C5.46941 0.22213 7.07123 0 9.01029 0C10.296 0 11.5711 0.126931 12.8357 0.380794C13.6628 0.546834 14.4178 0.760386 15.1007 1.02145C15.6737 1.24054 15.8804 1.91962 15.5855 2.45764C15.3036 2.9721 14.6668 3.16572 14.1208 2.95105C13.4631 2.69242 12.7818 2.49412 12.077 2.35616C11.0231 2.13403 10.0009 2.02297 9.01029 2.02297C7.76677 2.02297 6.74455 2.14197 5.94363 2.37996C5.14272 2.61796 4.55257 2.93529 4.17319 3.33195C3.81488 3.72861 3.63573 4.17287 3.63573 4.66473C3.63573 5.25179 3.87811 5.71985 4.36288 6.06891C4.86872 6.41797 5.51156 6.69563 6.2914 6.90189C7.09231 7.10816 7.967 7.29856 8.91545 7.47309C9.8639 7.63175 10.8124 7.81421 11.7608 8.02048C12.7303 8.22674 13.605 8.49647 14.3849 8.82967C15.1858 9.16286 15.8286 9.60712 16.3134 10.1624C16.7981 10.7178 17.0405 11.4318 17.0405 12.3044C17.0405 13.1453 16.7349 13.9307 16.1237 14.6606C15.5125 15.3746 14.564 15.9537 13.2783 16.398C12.0137 16.8263 10.4119 17.0405 8.47284 17.0405Z" fill="white"/>
<path d="M17.5547 17.0405L27.9371 1.08605C28.3779 0.408625 29.1314 0 29.9396 0C30.7466 0 31.4991 0.407399 31.9402 1.08317L42.3573 17.0405H39.1211L29.2214 1.36324H30.6206L20.7208 17.0405H17.5547ZM21.8403 12.7804L22.7848 10.8329H36.5675L37.582 12.7804H21.8403Z" fill="white"/>
<path d="M43.668 17.0405V0H46.0572L56.8792 15.3341H55.3627L66.0469 0H68.4361L68.4705 17.0405H65.5988L65.5644 3.67589H66.3571L56.8279 16.9995H55.2425L45.678 3.67589H46.5397V17.0405H43.668Z" fill="white"/>
<path d="M82.7354 17.0405C82.0275 17.0405 81.4536 16.4667 81.4536 15.7588V8.9208L82.2522 10.4301L71.14 2.02015C70.2807 1.36982 70.7406 0 71.8182 0C72.0571 0 72.2898 0.0761093 72.4825 0.217286L83.8638 8.55565H81.85L93.2881 0.200582C93.4665 0.0702427 93.6818 0 93.9027 0C94.9012 0 95.328 1.26865 94.5326 1.87218L83.2533 10.4301L84.0172 8.9208V15.7588C84.0172 16.4667 83.4433 17.0405 82.7354 17.0405Z" fill="white"/>
<path d="M91.9705 17.0404C91.5682 17.0404 91.1954 16.968 90.8521 16.8232C90.5089 16.6783 90.2085 16.4772 89.951 16.2197C89.6936 15.9569 89.4924 15.6539 89.3476 15.3106C89.2082 14.9673 89.1384 14.5972 89.1384 14.2003C89.1384 13.8034 89.2108 13.4333 89.3557 13.09C89.5005 12.7467 89.7016 12.4464 89.9591 12.1889C90.2165 11.9261 90.5169 11.7223 90.8602 11.5775C91.2088 11.4326 91.5843 11.3602 91.9866 11.3602C92.3888 11.3602 92.7616 11.4326 93.1049 11.5775C93.4535 11.7169 93.7539 11.9154 94.006 12.1728C94.2635 12.4303 94.4619 12.7307 94.6014 13.0739C94.7462 13.4118 94.8186 13.7819 94.8186 14.1842C94.8186 14.5865 94.7462 14.962 94.6014 15.3106C94.4565 15.6539 94.2527 15.9569 93.9899 16.2197C93.7324 16.4772 93.4321 16.6783 93.0888 16.8232C92.7455 16.968 92.3727 17.0404 91.9705 17.0404ZM92.9279 15.8094L92.1233 14.5704H92.6785L93.483 15.8094H92.9279ZM91.9705 16.6783C92.3191 16.6783 92.6436 16.614 92.944 16.4853C93.2443 16.3565 93.5072 16.1795 93.7324 15.9542C93.9577 15.729 94.132 15.4661 94.2554 15.1658C94.3788 14.86 94.4405 14.5329 94.4405 14.1842C94.4405 13.8356 94.3788 13.5111 94.2554 13.2107C94.132 12.9103 93.9604 12.6502 93.7405 12.4303C93.5206 12.2104 93.2604 12.0387 92.9601 11.9154C92.6651 11.7866 92.3406 11.7223 91.9866 11.7223C91.6326 11.7223 91.3027 11.7866 90.997 11.9154C90.6966 12.0387 90.4364 12.2157 90.2165 12.4464C89.9966 12.6717 89.825 12.9345 89.7016 13.2348C89.5783 13.5298 89.5166 13.8517 89.5166 14.2003C89.5166 14.549 89.5783 14.8735 89.7016 15.1738C89.825 15.4742 89.9966 15.737 90.2165 15.9623C90.4364 16.1876 90.6966 16.3646 90.997 16.4933C91.2973 16.6167 91.6218 16.6783 91.9705 16.6783ZM90.836 15.8094V12.5912H92.1233C92.531 12.5912 92.8501 12.6904 93.0808 12.8889C93.3114 13.0873 93.4267 13.3528 93.4267 13.6854C93.4267 14.0287 93.3114 14.2969 93.0808 14.49C92.8501 14.683 92.531 14.7796 92.1233 14.7796H91.3831V15.8094H90.836ZM91.3751 14.329H92.0831C92.3406 14.329 92.539 14.2727 92.6785 14.1601C92.8233 14.0474 92.8957 13.8892 92.8957 13.6854C92.8957 13.4816 92.8233 13.326 92.6785 13.2187C92.539 13.1061 92.3406 13.0498 92.0831 13.0498H91.3751V14.329Z" fill="white"/>
</svg>
